<svg width="36" height="45" viewBox="0 0 36 45" fill="none" xmlns="http://www.w3.org/2000/svg">
<path d="M26.8442 1.87292L26.7987 1L25.9299 1.0935C25.8447 1.1026 17.4473 2.11452 16.8714 11.5032L16.8135 12.4431L17.7534 12.3794C17.8494 12.3728 27.3605 11.614 26.8442 1.87292ZM25.2051 2.92125C25.0471 8.5791 20.6452 10.1528 18.6247 10.5773C19.3942 5.07914 23.3815 3.40363 25.2051 2.92125Z" fill="white" stroke="white" stroke-width="0.5"/>
<path d="M34.9379 32.042L34.4092 31.8707C31.2096 30.8365 29.0608 27.9058 29.0608 24.5779C29.0608 21.6174 30.7347 18.9697 33.4304 17.6674L34.2346 17.2793L33.7862 16.5073C33.5942 16.1764 31.7996 13.2448 28.0084 12.2743C25.0015 11.5048 21.6207 12.1858 17.9561 14.299C16.4047 13.3574 11.2516 10.6435 7.15177 13.364C6.34918 13.8075 -2.15744 18.9035 2.27004 32.6535C2.39994 32.9613 5.48702 40.1937 9.14005 42.9026C10.1255 43.8442 12.6458 45.0208 15.526 43.0573C16.0249 42.8513 19.3636 41.5663 21.4817 43.0714C22.2636 43.6067 23.6289 44.2132 25.0711 44.2132C26.1649 44.2132 27.3026 43.8649 28.264 42.872C28.7125 42.4839 32.809 38.8276 34.9379 33.0357L35 32.8669L34.9379 32.042ZM27.1586 41.6383L27.0949 41.6987C25.2804 43.6043 22.5292 41.7815 22.4275 41.7136C21.3452 40.9441 20.0917 40.6934 18.9159 40.6934C16.782 40.6934 14.9055 41.52 14.7855 41.5738L14.6506 41.6499C12.1527 43.3933 10.4424 41.8593 10.2612 41.6847L10.1636 41.6011C6.8597 39.1917 3.82309 32.0801 3.81896 32.0776C-0.324725 19.1964 7.61347 14.9832 7.95106 14.812L8.04207 14.7582C11.8871 12.1767 17.4142 15.9132 17.4688 15.9505L17.9098 16.2533L18.3665 15.9778C21.8086 13.8968 24.9147 13.1894 27.598 13.877C29.784 14.4363 31.1774 15.8024 31.8591 16.6422C29.0898 18.3392 27.4068 21.3005 27.4068 24.5779C27.4068 28.3476 29.6698 31.697 33.1176 33.154C30.9953 38.3345 27.1992 41.6044 27.1586 41.6383Z" fill="white" stroke="white" stroke-width="0.5"/>
</svg>
