<svg width="49" height="57" viewBox="0 0 49 57" fill="none" xmlns="http://www.w3.org/2000/svg">
<path d="M9.35344 17.7529L8.51216 18.6043H9.70911H46.1657C47.4549 18.6043 48.5 19.6494 48.5 20.9386C48.5 22.2279 47.4549 23.273 46.1657 23.273H9.64378H8.42636L9.29235 24.1286L11.5734 26.3825C12.4904 27.2886 12.4993 28.7665 11.5932 29.6836L11.5931 29.6836C11.1365 30.1459 10.5354 30.3773 9.93256 30.3773C9.33907 30.3773 8.74703 30.1531 8.29196 29.7035C8.29195 29.7035 8.29195 29.7035 8.29194 29.7035L1.19369 22.6898C0.753315 22.2547 0.503794 21.6624 0.500104 21.0434L0.500104 21.0433C0.496369 20.4243 0.738736 19.8291 1.17389 19.3887L1.17391 19.3887L8.28313 12.1937L7.92747 11.8422L8.28313 12.1937C9.18931 11.2766 10.6673 11.2677 11.5843 12.1739L11.5843 12.1739C12.5014 13.08 12.5102 14.558 11.6041 15.475L9.35344 17.7529Z" fill="#F2395B" stroke="white"/>
<path d="M37.4158 27.0597L37.4157 27.0597C36.4987 27.9658 36.4898 29.4437 37.396 30.3608L37.0403 30.7122L37.396 30.3608L39.6466 32.6387L40.4879 33.4901H39.291H2.83434C1.54511 33.4901 0.5 34.5352 0.5 35.8244C0.5 37.1136 1.54512 38.1588 2.83434 38.1588H39.3562H40.5737L39.7077 39.0145L37.4266 41.2682C36.5096 42.1743 36.5007 43.6523 37.4069 44.5694C37.8636 45.0317 38.4646 45.2631 39.0674 45.2631L37.4158 27.0597ZM37.4158 27.0597C38.3328 26.1534 39.8108 26.1623 40.7169 27.0794L41.0726 26.728M37.4158 27.0597L41.0726 26.728M41.0726 26.728L40.7169 27.0794L47.8261 34.2744C48.2612 34.7148 48.5036 35.31 48.4999 35.9292C48.4962 36.5482 48.2467 37.1405 47.8063 37.5756L40.7081 44.5893C40.2532 45.0387 39.661 45.263 39.0675 45.2631L41.0726 26.728Z" fill="#F2395B" stroke="white"/>
<rect x="36.951" y="0.950962" width="6.74287" height="60" rx="3.37144" transform="rotate(30 36.951 0.950962)" fill="#F2395B" stroke="white" stroke-width="3"/>
</svg>
