<svg width="138" height="59" viewBox="0 0 138 59" fill="none" xmlns="http://www.w3.org/2000/svg">
<circle cx="109" cy="29.5981" r="29" fill="#DE4343"/>
<path d="M94.7433 23.9527C96.3858 22.7264 98.2985 21.9123 100.321 21.5785C102.637 21.1643 104.992 21.0115 107.343 21.123C110.187 21.2174 113.038 21.2678 115.872 21.6751C118.128 22.0214 120.347 22.5315 122.381 23.6336C123.702 24.3065 124.846 25.2809 125.721 26.478C126.747 27.9243 127.098 29.5848 127.043 31.3229C127.004 32.0232 126.896 32.7179 126.72 33.3969C126.627 33.813 126.415 34.1928 126.108 34.4894C125.802 34.786 125.416 34.9863 124.997 35.0657C123.093 35.549 121.081 35.3668 119.295 34.5493C119.029 34.449 118.794 34.279 118.616 34.0571C118.438 33.8352 118.322 33.5695 118.281 33.2877C118.176 32.5824 118.095 31.875 117.992 31.1675C117.899 30.542 117.824 29.9122 117.683 29.2972C117.633 29.0029 117.492 28.7319 117.279 28.5228C117.066 28.3136 116.792 28.1769 116.497 28.1321C115.059 27.8907 113.615 27.6052 112.164 27.4562C109.529 27.1761 106.875 27.129 104.232 27.3156C103.646 27.3596 103.069 27.4583 102.487 27.5486C102.233 27.5804 101.993 27.6846 101.796 27.8487C101.599 28.0128 101.454 28.2299 101.377 28.4743C101.194 29.0116 101.04 29.5582 100.915 30.1117C100.745 30.8821 100.592 31.6525 100.426 32.4103C100.357 32.7225 100.204 33.0096 99.9822 33.2401C99.7607 33.4705 99.4798 33.6352 99.1705 33.7159C97.3886 34.316 95.4615 34.3307 93.6707 33.7579C93.2043 33.634 92.7868 33.371 92.4737 33.0038C92.1605 32.6367 91.9667 32.1829 91.9179 31.7028C91.5547 29.018 92.0984 26.5934 94.0296 24.5782C94.2567 24.3577 94.4949 24.1489 94.7433 23.9527Z" fill="white"/>
<circle cx="29" cy="29.5981" r="29" fill="#7FDC68"/>
<path d="M30.8611 22.5981H19.7056C18.212 22.5998 17.0017 23.8102 17 25.3038V34.2837C17.0017 35.7773 18.212 36.9876 19.7056 36.9893H30.8611C32.3547 36.9876 33.565 35.7773 33.5667 34.2837V25.3038C33.565 23.8102 32.3547 22.5998 30.8611 22.5981Z" fill="white"/>
<path d="M41.7271 24.0067C41.5584 23.9103 41.3511 23.912 41.1837 24.0107L35.2008 27.5433C35.036 27.6407 34.9349 27.8178 34.9349 28.0094V31.2726C34.9349 31.4398 35.0121 31.5977 35.1442 31.7002L41.127 36.345C41.2902 36.4716 41.5113 36.4945 41.6969 36.4036C41.8825 36.3127 42 36.1241 42 35.9176V24.4766C42 24.2824 41.8958 24.1031 41.7271 24.0067Z" fill="white"/>
</svg>
