<svg width="38" height="43" viewBox="0 0 38 43" fill="none" xmlns="http://www.w3.org/2000/svg">
<path d="M36.5443 0H4.7385C3.93445 0 3.28295 0.651699 3.28295 1.45555V9.84904H1.45555C0.651505 9.84904 0 10.5007 0 11.3046C0 12.1084 0.651505 12.7601 1.45555 12.7601H3.28295V19.6983H1.45555C0.651505 19.6983 0 20.35 0 21.1538C0 21.9577 0.651505 22.6094 1.45555 22.6094H3.28295V29.5473H1.45555C0.651505 29.5473 0 30.199 0 31.0029C0 31.8067 0.651505 32.4584 1.45555 32.4584H3.28295V40.8519C3.28295 41.6558 3.93445 42.3075 4.7385 42.3075H36.5444C37.3485 42.3075 38 41.6558 38 40.8519V1.45555C37.9998 0.651699 37.3483 0 36.5443 0ZM35.0887 39.3964H6.19405V32.4584H8.02145C8.8255 32.4584 9.477 31.8067 9.477 31.0029C9.477 30.199 8.8255 29.5473 8.02145 29.5473H6.19405V22.6094H8.02145C8.8255 22.6094 9.477 21.9577 9.477 21.1538C9.477 20.35 8.8255 19.6983 8.02145 19.6983H6.19405V12.7601H8.02145C8.8255 12.7601 9.477 12.1084 9.477 11.3046C9.477 10.5007 8.8255 9.84904 8.02145 9.84904H6.19405V2.9111H35.0889V39.3964H35.0887Z" fill="#F2395B"/>
<path d="M21.6827 21.8228C24.9827 21.8228 27.6675 19.137 27.6675 15.8358C27.6675 12.5344 24.9827 9.84863 21.6827 9.84863C18.3817 9.84863 15.6961 12.5344 15.6961 15.8358C15.6961 19.137 18.3817 21.8228 21.6827 21.8228ZM21.6827 12.7599C23.3775 12.7599 24.7564 14.1398 24.7564 15.836C24.7564 17.532 23.3777 18.9119 21.6827 18.9119C19.9869 18.9119 18.6072 17.532 18.6072 15.836C18.6072 14.1398 19.9869 12.7599 21.6827 12.7599Z" fill="#F2395B"/>
<path d="M15.0186 32.7092C15.8226 32.7092 16.4742 32.0575 16.4742 31.2536V28.7382C16.4742 27.1237 17.788 25.81 19.4027 25.81H23.9988C25.6135 25.81 26.9273 27.1235 26.9273 28.7382V31.2536C26.9273 32.0575 27.5789 32.7092 28.3829 32.7092C29.1868 32.7092 29.8384 32.0575 29.8384 31.2536V28.7382C29.8384 25.5185 27.2188 22.8989 23.9988 22.8989H19.4027C16.1827 22.8989 13.563 25.5183 13.563 28.7382V31.2536C13.563 32.0575 14.2147 32.7092 15.0186 32.7092Z" fill="#F2395B"/>
</svg>
