<svg width="88" height="88" viewBox="0 0 88 88" fill="none" xmlns="http://www.w3.org/2000/svg">
<circle opacity="0.2" cx="43.7128" cy="43.7128" r="32" transform="rotate(30 43.7128 43.7128)" fill="#577AF3"/>
<path d="M44.5037 42.535C47.3096 44.2154 50.7133 43.5361 52.106 41.0178C53.4988 38.4996 52.3532 35.0959 49.5473 33.4156C46.7415 31.7352 43.3378 32.4145 41.945 34.9328C40.5523 37.4511 41.6978 40.8547 44.5037 42.535Z" fill="#577AF3"/>
<path d="M52.478 50.9285C54.4822 52.1287 56.9133 51.6435 57.9082 49.8448C58.903 48.046 58.0847 45.6149 56.0806 44.4147C54.0764 43.2144 51.6452 43.6996 50.6504 45.4984C49.6556 47.2971 50.4738 49.7283 52.478 50.9285Z" fill="#577AF3"/>
<path d="M33.2976 39.8548C35.3017 41.055 37.7329 40.5698 38.7277 38.7711C39.7225 36.9723 38.9043 34.5412 36.9001 33.3409C34.8959 32.1407 32.4648 32.6259 31.47 34.4246C30.4752 36.2234 31.2934 38.6545 33.2976 39.8548Z" fill="#577AF3"/>
<path d="M43.1426 44.527C38.0391 41.4818 31.8227 42.7237 29.2856 47.2954C29.0902 47.6475 29.2507 48.1236 29.6437 48.3581L46.7312 58.554C47.1242 58.7885 47.6017 58.6931 47.7971 58.341C50.3342 53.7693 48.2461 47.5721 43.1426 44.527Z" fill="#577AF3"/>
<path d="M33.4255 42.6324C33.0293 42.2827 32.61 41.9573 32.1527 41.6834C28.5616 39.5329 24.1885 40.4058 22.4059 43.6289C22.2076 43.9874 22.3709 44.4726 22.7704 44.7118L27.9696 47.8252C28.0013 47.5727 28.0692 47.3246 28.1956 47.0959C29.3747 44.9641 31.2391 43.4606 33.4255 42.6324Z" fill="#577AF3"/>
<path d="M51.1801 52.558C50.7227 52.2841 50.2416 52.0703 49.752 51.8896C50.1623 54.2727 49.8496 56.7055 48.6705 58.8373C48.544 59.0659 48.372 59.2516 48.1781 59.4071L53.3773 62.5205C53.7768 62.7597 54.262 62.6628 54.4603 62.3043C56.2429 59.0812 54.7712 54.7084 51.1801 52.558Z" fill="#577AF3"/>
</svg>
