<svg width="54" height="44" viewBox="0 0 54 44" fill="none" xmlns="http://www.w3.org/2000/svg">
<path d="M22 0C9.86506 0 0 9.86503 0 22C0 34.1349 9.86506 44 22 44C26.6755 44 31.0292 42.5503 34.5974 40.057C36.4965 42.4506 39.4249 44 42.7059 44C48.4083 44 53.0588 39.3495 53.0588 33.6471C53.0588 28.3706 49.0721 23.9992 43.9596 23.375C43.9906 22.919 44 22.4639 44 22C44 9.86503 34.1349 0 22 0ZM22 2.58824C32.7361 2.58824 41.4118 11.2638 41.4118 22C41.4118 22.4698 41.3883 22.9351 41.3511 23.3952C38.8946 23.7201 36.7063 24.9111 35.103 26.6507C34.3343 25.7703 33.3629 24.9917 32.2519 24.3658C29.5431 22.8399 25.9533 22 22 22C18.0467 22 14.4569 22.8399 11.7482 24.3658C9.03939 25.8917 7.11765 28.2423 7.11765 31.0588V34.4761C4.28995 31.1045 2.58824 26.7539 2.58824 22C2.58824 11.2638 11.2639 2.58824 22 2.58824ZM22 5.17647C17.727 5.17647 14.2353 8.66817 14.2353 12.9412C14.2353 17.2142 17.727 20.7059 22 20.7059C26.273 20.7059 29.7647 17.2142 29.7647 12.9412C29.7647 8.66817 26.273 5.17647 22 5.17647ZM22 7.76471C24.8742 7.76471 27.1765 10.067 27.1765 12.9412C27.1765 15.8154 24.8742 18.1176 22 18.1176C19.1258 18.1176 16.8235 15.8154 16.8235 12.9412C16.8235 10.067 19.1258 7.76471 22 7.76471ZM22 24.5882C25.5746 24.5882 28.7746 25.3893 30.9779 26.6305C32.1536 27.2927 32.9985 28.0506 33.546 28.8547C32.7921 30.2894 32.3529 31.9192 32.3529 33.6471C32.3529 35.1268 32.659 36.5373 33.2224 37.8125C30.0533 40.0676 26.1944 41.4118 22 41.4118C17.329 41.4118 13.052 39.7635 9.70588 37.0239V31.0588C9.70588 29.4144 10.8187 27.8717 13.0221 26.6305C15.2254 25.3893 18.4254 24.5882 22 24.5882ZM42.7059 25.8824C47.0095 25.8824 50.4706 29.3434 50.4706 33.6471C50.4706 37.9507 47.0095 41.4118 42.7059 41.4118C38.4022 41.4118 34.9412 37.9507 34.9412 33.6471C34.9412 29.3434 38.4022 25.8824 42.7059 25.8824ZM42.7059 27.8235C41.9911 27.8235 41.4118 28.4029 41.4118 29.1176V35.0625L40.3805 34.0312C39.8751 33.5258 39.0661 33.5258 38.5607 34.0312C38.0552 34.5366 38.0451 35.3305 38.5607 35.8511C39.6134 36.9103 40.7174 38.0664 41.7757 39.046C42.012 39.2989 42.3325 39.4706 42.7059 39.4706C43.0793 39.4706 43.3998 39.2989 43.636 39.046C44.7133 38.0859 45.7755 36.8871 46.8511 35.8511C47.3717 35.3305 47.3565 34.5366 46.8511 34.0312C46.3457 33.5258 45.5367 33.5258 45.0312 34.0312L44 35.0625V29.1176C44 28.4029 43.4207 27.8235 42.7059 27.8235Z" fill="#F2395B"/>
</svg>
