<svg width="51" height="47" viewBox="0 0 51 47" fill="none" xmlns="http://www.w3.org/2000/svg">
<path d="M50.7695 21.0136C48.677 17.3975 45.7683 14.2072 42.3583 11.7875C41.5874 11.2406 40.5189 11.4219 39.9719 12.1928C39.4248 12.9637 39.6063 14.0322 40.3772 14.5792C43.1167 16.5232 45.4899 19.0304 47.2876 21.8712C42.5836 29.3129 34.3262 33.8955 25.4997 33.8955C24.5544 33.8955 23.7881 34.6619 23.7881 35.6071C23.7881 36.5524 24.5544 37.3188 25.4997 37.3188C35.8783 37.3188 45.5611 31.7279 50.7695 22.7282C51.0764 22.1978 51.0764 21.544 50.7695 21.0136Z" fill="#F2395B"/>
<path d="M25.4998 32.0311C31.1023 32.0311 35.6602 27.4732 35.6602 21.8707C35.6602 21.1294 35.5797 20.3891 35.4208 19.6702C35.217 18.7471 34.3037 18.1635 33.3803 18.368C32.4572 18.5718 31.8743 19.4853 32.0781 20.4085C32.1833 20.8852 32.2367 21.3773 32.2367 21.8707C32.2367 25.5856 29.2145 28.6079 25.4995 28.6079C24.2619 28.6079 23.1023 28.271 22.1046 27.6863L46.8693 2.9218C47.5378 2.25336 47.5378 1.16955 46.8693 0.501336C46.2009 -0.167112 45.1171 -0.167112 44.4488 0.501336L19.6843 25.2658C19.0996 24.2681 18.7628 23.1085 18.7628 21.8709C18.7628 18.156 21.7851 15.1337 25.5 15.1337C26.032 15.1337 26.5607 15.1955 27.0719 15.3176C27.9908 15.5363 28.9148 14.9698 29.1343 14.0503C29.3539 13.1309 28.7865 12.2075 27.8671 11.988C27.0957 11.8038 26.2992 11.7104 25.5 11.7104C19.8975 11.7104 15.3395 16.2684 15.3395 21.8709C15.3395 24.0554 16.0347 26.0792 17.2125 27.7379L13.8431 31.1073C9.68296 28.9906 6.20037 25.8158 3.71166 21.8713C8.41567 14.4287 16.6728 9.84614 25.5 9.84614C27.3289 9.84614 29.1544 10.0387 30.9261 10.4187C31.8506 10.6173 32.7605 10.0285 32.9586 9.1042C33.1569 8.17992 32.5683 7.26979 31.6441 7.0717C29.6369 6.64106 27.5697 6.42288 25.5 6.42288C15.1214 6.42288 5.43858 12.0137 0.230214 21.0137C-0.076738 21.5441 -0.076738 22.1979 0.230214 22.7283C2.88963 27.3241 6.7045 31.0692 11.3136 33.6368L1.31744 43.6327C0.648992 44.3012 0.648992 45.385 1.31744 46.0532C1.65155 46.3873 2.08973 46.5546 2.52767 46.5546C2.96562 46.5546 3.4038 46.3876 3.73791 46.0532L19.6328 30.1584C21.2917 31.336 23.3155 32.0311 25.4998 32.0311Z" fill="#F2395B"/>
</svg>
