<svg width="43" height="49" viewBox="0 0 43 49" fill="none" xmlns="http://www.w3.org/2000/svg">
<path d="M35.7164 6.95645C31.8755 3.11516 26.7685 1 21.3366 1C15.9044 1 10.7974 3.11552 6.95645 6.95645C3.11552 10.7974 1 15.9044 1 21.3363C1 26.7685 3.11552 31.8755 6.95645 35.7164L17.7607 46.521C18.713 47.473 19.9827 47.9976 21.3363 47.9976C22.6895 47.9976 23.9591 47.473 24.9115 46.521L35.7164 35.7164C39.5577 31.8755 41.6729 26.7685 41.6729 21.3363C41.6729 15.9044 39.5574 10.7974 35.7164 6.95645ZM33.7694 33.7691L22.9641 44.574C22.5324 45.0057 21.9541 45.2438 21.3363 45.2438C20.7185 45.2438 20.1401 45.0057 19.708 44.574L8.9038 33.7691C5.58279 30.4484 3.75376 26.0327 3.75376 21.3363C3.75376 16.6398 5.58279 12.2245 8.9038 8.90345C12.2248 5.58279 16.6398 3.75376 21.3366 3.75376C26.0331 3.75376 30.4484 5.58279 33.7694 8.90345C40.6248 15.7592 40.6248 26.9141 33.7694 33.7691Z" fill="#F2395B" stroke="#F2395B"/>
<path d="M21.3366 14.0601C17.3243 14.0601 14.0603 17.3241 14.0603 21.3364C14.0603 25.3483 17.3243 28.6123 21.3366 28.6123C25.3486 28.6123 28.6126 25.3483 28.6126 21.3364C28.6126 17.3241 25.3486 14.0601 21.3366 14.0601ZM21.3366 25.8586C18.8428 25.8586 16.8141 23.8298 16.8141 21.336C16.8141 18.8426 18.8428 16.8138 21.3366 16.8138C23.8301 16.8138 25.8588 18.8426 25.8588 21.336C25.8588 23.8298 23.8301 25.8586 21.3366 25.8586Z" fill="#F2395B" stroke="#F2395B"/>
</svg>
