<svg width="75" height="59" viewBox="0 0 75 59" fill="none" xmlns="http://www.w3.org/2000/svg">
<path d="M27.9568 0C27.9417 0.0151857 27.9113 0.0151857 27.8657 0.0151857C12.4978 0.0151857 0 12.513 0 27.8809C0 34.1526 2.14118 40.2421 6.05909 45.147L2.00451 54.5622C1.67043 55.3366 2.03488 56.2326 2.79417 56.5515C3.06751 56.673 3.37122 56.7033 3.65975 56.6578L18.5265 54.0458C21.5029 55.124 24.6312 55.6707 27.7898 55.6555C43.1577 55.6555 55.6555 43.1577 55.6555 27.7898C55.6859 12.4674 43.2792 0.0151857 27.9568 0ZM27.805 52.6336C24.8742 52.6336 21.9737 52.1021 19.2251 51.0695C18.9669 50.9632 18.6936 50.948 18.4202 50.9935L5.90723 53.1803L9.21771 45.4811C9.4455 44.9496 9.35438 44.327 8.97474 43.8866C7.18283 41.8062 5.75537 39.4372 4.75312 36.8708C3.62938 34.0007 3.05232 30.9484 3.05232 27.8657C3.05232 14.1682 14.1986 3.03714 27.8809 3.03714C41.5328 3.00677 52.6184 14.0468 52.6336 27.6987C52.6336 27.7291 52.6336 27.7594 52.6336 27.7898C52.6336 41.5025 41.4873 52.6336 27.805 52.6336Z" fill="#F2395B"/>
<path d="M26.6206 22.2773H18.4203C17.5851 22.2773 16.9017 22.9607 16.9017 23.7959C16.9017 24.6311 17.5851 25.3145 18.4203 25.3145H26.6206C27.4558 25.3145 28.1391 24.6311 28.1391 23.7959C28.1391 22.9607 27.4558 22.2773 26.6206 22.2773Z" fill="#F2395B"/>
<path d="M37.2506 29.8701H18.4203C17.5851 29.8701 16.9017 30.5535 16.9017 31.3887C16.9017 32.2239 17.5851 32.9073 18.4203 32.9073H37.2506C38.0858 32.9073 38.7691 32.2239 38.7691 31.3887C38.7691 30.5535 38.0858 29.8701 37.2506 29.8701Z" fill="#F2395B"/>
<path d="M73.408 37.504C73.408 36.1577 72.3531 35.1028 71.0068 35.1028C69.6605 35.1028 68.6057 36.1577 68.6057 37.504C68.6057 42.4163 64.6163 46.4056 59.704 46.4056C54.7917 46.4056 50.8024 42.4163 50.8024 37.504C50.8024 36.1577 49.7475 35.1028 48.4012 35.1028C47.0549 35.1028 46 36.1577 46 37.504C46 44.1988 50.7938 49.8874 57.3028 51.0289V52.8977H53.2119C51.8656 52.8977 50.8107 53.9526 50.8107 55.2989C50.8107 56.6452 51.8656 57.7001 53.2119 57.7001H66.1961C67.5424 57.7001 68.5973 56.6452 68.5973 55.2989C68.5973 53.9526 67.5424 52.8977 66.1961 52.8977H62.1052V51.0289C68.6142 49.8874 73.408 44.1988 73.408 37.504Z" fill="#577AF3" stroke="#FFECEF" stroke-width="2"/>
<path d="M59.6932 46.3037L59.6932 46.3038H59.7041C64.5533 46.3038 68.5039 42.3531 68.5039 37.5039V24.7999C68.5039 19.9507 64.5533 16 59.7041 16C54.8548 16 50.9042 19.9507 50.9042 24.7999V37.4572C50.9042 42.359 54.8585 46.2512 59.6932 46.3037Z" fill="#577AF3" stroke="#FFECEF" stroke-width="2"/>
</svg>
