<svg width="135" height="132" viewBox="0 0 135 132" fill="none" xmlns="http://www.w3.org/2000/svg">
<g filter="url(#filter0_d)">
<path d="M81.8356 26.2103C97.7212 25.9676 110.687 38.4706 110.994 54.3551C111.04 56.6872 110.807 58.9572 110.326 61.1346C109.513 64.8214 109.03 68.5731 109.03 72.3486V79.6464C109.03 80.7644 108.123 81.6708 107.005 81.6708H99.7074C95.9319 81.6708 92.1803 82.1542 88.4935 82.9675C86.3163 83.4477 84.0463 83.6808 81.7141 83.6356C65.8298 83.3282 53.3268 70.3629 53.5691 54.4776C53.8055 38.9722 66.3304 26.4471 81.8356 26.2103Z" fill="url(#paint0_linear)"/>
<path d="M81.8356 26.2103C97.7212 25.9676 110.687 38.4706 110.994 54.3551C111.04 56.6872 110.807 58.9572 110.326 61.1346C109.513 64.8214 109.03 68.5731 109.03 72.3486V79.6464C109.03 80.7644 108.123 81.6708 107.005 81.6708H99.7074C95.9319 81.6708 92.1803 82.1542 88.4935 82.9675C86.3163 83.4477 84.0463 83.6808 81.7141 83.6356C65.8298 83.3282 53.3268 70.3629 53.5691 54.4776C53.8055 38.9722 66.3304 26.4471 81.8356 26.2103Z" fill="url(#paint1_linear)"/>
<path d="M59.5303 0.00423223C40.1773 -0.291431 24.3815 14.9405 24.0067 34.2922C23.9518 37.1331 24.2357 39.8989 24.821 42.5514C25.8116 47.0428 26.4005 51.6135 26.4005 56.2131V65.1037C26.4005 66.4658 27.5047 67.5702 28.867 67.5702H37.7576C42.357 67.5702 46.9277 68.1591 51.4193 69.1497C54.0718 69.7348 56.8374 70.0189 59.6783 69.9638C79.0297 69.5892 94.2616 53.7939 93.9666 34.4412C93.6784 15.5515 78.4198 0.292589 59.5303 0.00423223Z" fill="url(#paint2_linear)"/>
<path d="M46.4625 33.11C45.4742 32.0599 44.0755 31.4004 42.5193 31.4004C39.5265 31.4004 37.1003 33.8265 37.1003 36.8194C37.1003 38.3753 37.7596 39.7741 38.8099 40.7626L50.4995 52.4521C51.4879 53.5023 52.8867 54.1617 54.4427 54.1617C57.4355 54.1617 59.8617 51.7356 59.8617 48.7428C59.8617 47.1868 59.2022 45.788 58.1521 44.7996L46.4625 33.11Z" fill="url(#paint3_linear)"/>
<path d="M42.5192 42.2376C45.512 42.2376 47.9382 39.8114 47.9382 36.8186C47.9382 33.8258 45.512 31.3997 42.5192 31.3997C39.5264 31.3997 37.1002 33.8258 37.1002 36.8186C37.1002 39.8114 39.5264 42.2376 42.5192 42.2376Z" fill="white"/>
<path d="M61.7877 33.11C60.7994 32.0599 59.4006 31.4004 57.8445 31.4004C54.8517 31.4004 52.4255 33.8265 52.4255 36.8194C52.4255 38.3753 53.0848 39.7741 54.1351 40.7626L65.8247 52.4521C66.8131 53.5023 68.2119 54.1617 69.7679 54.1617C72.7607 54.1617 75.1869 51.7356 75.1869 48.7428C75.1869 47.1868 74.5274 45.788 73.4773 44.7996L61.7877 33.11Z" fill="url(#paint4_linear)"/>
<path d="M57.8446 42.2376C60.8374 42.2376 63.2636 39.8114 63.2636 36.8186C63.2636 33.8258 60.8374 31.3997 57.8446 31.3997C54.8518 31.3997 52.4257 33.8258 52.4257 36.8186C52.4257 39.8114 54.8518 42.2376 57.8446 42.2376Z" fill="white"/>
<path d="M77.1129 33.11C76.1246 32.0599 74.7258 31.4004 73.1697 31.4004C70.1769 31.4004 67.7507 33.8265 67.7507 36.8194C67.7507 38.3753 68.4102 39.7741 69.4603 40.7626L81.1499 52.4521C82.1383 53.5023 83.5371 54.1617 85.0931 54.1617C88.0859 54.1617 90.5121 51.7356 90.5121 48.7428C90.5121 47.1868 89.8526 45.788 88.8025 44.7996L77.1129 33.11Z" fill="url(#paint5_linear)"/>
<path d="M73.1704 42.2376C76.1632 42.2376 78.5894 39.8114 78.5894 36.8186C78.5894 33.8258 76.1632 31.3997 73.1704 31.3997C70.1776 31.3997 67.7515 33.8258 67.7515 36.8186C67.7515 39.8114 70.1776 42.2376 73.1704 42.2376Z" fill="white"/>
</g>
<path d="M112.408 85.7823C112.408 84.436 111.353 83.3811 110.007 83.3811C108.661 83.3811 107.606 84.436 107.606 85.7823C107.606 90.6946 103.616 94.6839 98.704 94.6839C93.7917 94.6839 89.8024 90.6946 89.8024 85.7823C89.8024 84.436 88.7475 83.3811 87.4012 83.3811C86.0549 83.3811 85 84.436 85 85.7823C85 92.4771 89.7938 98.1657 96.3028 99.3072V101.176H92.2119C90.8656 101.176 89.8107 102.231 89.8107 103.577C89.8107 104.924 90.8656 105.978 92.2119 105.978H105.196C106.542 105.978 107.597 104.924 107.597 103.577C107.597 102.231 106.542 101.176 105.196 101.176H101.105V99.3072C107.614 98.1657 112.408 92.4771 112.408 85.7823Z" fill="#577AF3" stroke="white" stroke-width="2"/>
<path d="M98.6932 94.582L98.6932 94.5821H98.7041C103.553 94.5821 107.504 90.6314 107.504 85.7822V73.0782C107.504 68.229 103.553 64.2783 98.7041 64.2783C93.8548 64.2783 89.9042 68.229 89.9042 73.0782V85.7355C89.9042 90.6374 93.8585 94.5295 98.6932 94.582Z" fill="#577AF3" stroke="white" stroke-width="2"/>
<defs>
<filter id="filter0_d" x="0" y="0" width="135" height="131.641" filterUnits="userSpaceOnUse" color-interpolation-filters="sRGB">
<feFlood flood-opacity="0" result="BackgroundImageFix"/>
<feColorMatrix in="SourceAlpha" type="matrix" values="0 0 0 0 0 0 0 0 0 0 0 0 0 0 0 0 0 0 127 0"/>
<feOffset dy="24"/>
<feGaussianBlur stdDeviation="12"/>
<feColorMatrix type="matrix" values="0 0 0 0 0 0 0 0 0 0 0 0 0 0 0 0 0 0 0.04 0"/>
<feBlend mode="normal" in2="BackgroundImageFix" result="effect1_dropShadow"/>
<feBlend mode="normal" in="SourceGraphic" in2="effect1_dropShadow" result="shape"/>
</filter>
<linearGradient id="paint0_linear" x1="76.4859" y1="49.1288" x2="118.647" y2="91.2904" gradientUnits="userSpaceOnUse">
<stop stop-color="#A7F3CE"/>
<stop offset="1" stop-color="#61DB99"/>
</linearGradient>
<linearGradient id="paint1_linear" x1="90.2874" y1="62.9296" x2="72.3795" y2="45.0234" gradientUnits="userSpaceOnUse">
<stop stop-color="#F2395B"/>
<stop offset="1" stop-color="#FEB6C3"/>
</linearGradient>
<linearGradient id="paint2_linear" x1="46.2036" y1="29.3293" x2="90.7175" y2="73.8432" gradientUnits="userSpaceOnUse">
<stop stop-color="#62E1FB"/>
<stop offset="1" stop-color="#00A2F3"/>
</linearGradient>
<linearGradient id="paint3_linear" x1="54.5739" y1="48.875" x2="31.1366" y2="25.4384" gradientUnits="userSpaceOnUse">
<stop stop-color="#00A2F3" stop-opacity="0"/>
<stop offset="1" stop-color="#0075CD"/>
</linearGradient>
<linearGradient id="paint4_linear" x1="69.898" y1="48.8744" x2="46.4614" y2="25.4379" gradientUnits="userSpaceOnUse">
<stop stop-color="#00A2F3" stop-opacity="0"/>
<stop offset="1" stop-color="#0075CD"/>
</linearGradient>
<linearGradient id="paint5_linear" x1="85.2232" y1="48.8747" x2="61.7866" y2="25.4381" gradientUnits="userSpaceOnUse">
<stop stop-color="#00A2F3" stop-opacity="0"/>
<stop offset="1" stop-color="#0075CD"/>
</linearGradient>
</defs>
</svg>
