<svg width="100" height="65" viewBox="0 0 100 65" fill="none" xmlns="http://www.w3.org/2000/svg">
<path d="M3.44092 10.0369V54.0967C3.44092 57.0245 5.81439 59.3979 8.74222 59.3979H90.1479C93.0757 59.3979 95.4491 57.0245 95.4491 54.0967V10.0369C95.4491 7.10906 93.0757 4.73559 90.1479 4.73559H8.74222C5.81439 4.73559 3.44092 7.10906 3.44092 10.0369Z" fill="#EEEFEE"/>
<path d="M16.2949 59.3994V4.73706H76.2802V59.3994H16.2949Z" fill="#89C5CD"/>
<path d="M16.2556 5.34475H8.31723C7.15244 5.3414 6.01951 5.72492 5.09626 6.43511C4.17302 7.1453 3.51173 8.14195 3.21619 9.26863C3.6866 9.13214 4.17415 9.0638 4.66396 9.06567H16.2556V5.34475Z" fill="#E1E6E9"/>
<path d="M16.3679 5.34473H75.6767V9.06565H16.3679V5.34473Z" fill="#6EAAAD"/>
<path d="M89.731 5.34473H76.6915V9.06565H86.0642C87.4709 9.06565 88.82 9.62446 89.8147 10.6192C90.8094 11.6138 91.3682 12.9629 91.3682 14.3697V58.4254C91.3678 58.8874 91.304 59.3472 91.1788 59.7919C92.289 59.4816 93.2671 58.8162 93.9634 57.8974C94.6598 56.9787 95.0362 55.8572 95.035 54.7044V10.6487C95.035 9.24202 94.4762 7.89293 93.4815 6.89823C92.4868 5.90354 91.1377 5.34473 89.731 5.34473Z" fill="#E1E6E9"/>
<path d="M54.5649 17.4139C54.6037 17.1905 54.6218 16.964 54.6191 16.7374C54.5313 15.34 53.9143 14.0286 52.8938 13.0702C51.8732 12.1117 50.5257 11.5781 49.1256 11.5781C47.7255 11.5781 46.3781 12.1117 45.3575 13.0702C44.3369 14.0286 43.72 15.34 43.6322 16.7374C43.6322 16.8862 43.6457 17.0486 43.6593 17.1974" fill="#707583"/>
<path d="M54.5663 18.0906C54.525 18.0909 54.4838 18.0873 54.4432 18.0797C54.2671 18.0469 54.1112 17.9455 54.0097 17.7979C53.9083 17.6503 53.8695 17.4684 53.9019 17.2923C53.9327 17.109 53.9467 16.9233 53.9439 16.7375C53.8549 15.521 53.3089 14.3831 52.4155 13.5526C51.5221 12.7222 50.3474 12.2605 49.1276 12.2605C47.9078 12.2605 46.7332 12.7222 45.8398 13.5526C44.9464 14.3831 44.4004 15.521 44.3114 16.7375C44.3114 16.8728 44.3236 17.0081 44.3358 17.1434C44.3515 17.3221 44.2957 17.4998 44.1805 17.6373C44.0653 17.7748 43.9002 17.861 43.7215 17.8768C43.5437 17.8883 43.3683 17.8309 43.2318 17.7165C43.0952 17.6021 43.0079 17.4395 42.9881 17.2625C42.9732 17.0934 42.9597 16.9107 42.9597 16.7429C43.0501 15.1679 43.7394 13.6871 44.8865 12.604C46.0335 11.5209 47.5514 10.9175 49.129 10.9175C50.7066 10.9175 52.2245 11.5209 53.3715 12.604C54.5186 13.6871 55.2079 15.1679 55.2983 16.7429C55.3008 17.0104 55.2795 17.2775 55.2347 17.5412C55.205 17.6964 55.1219 17.8364 54.9998 17.9367C54.8777 18.0371 54.7243 18.0915 54.5663 18.0906Z" fill="#323C6B"/>
<path d="M90.1477 64.1352H89.3656C89.1862 64.1352 89.0141 64.0639 88.8872 63.937C88.7604 63.8102 88.6891 63.6381 88.6891 63.4587C88.6891 63.2792 88.7604 63.1071 88.8872 62.9803C89.0141 62.8534 89.1862 62.7821 89.3656 62.7821H90.1531C92.1482 62.776 94.0809 62.0857 95.6284 60.8263C97.1759 59.567 98.2445 57.8149 98.6557 55.8626C98.6704 55.7727 98.7031 55.6867 98.7519 55.6097C98.8006 55.5327 98.8644 55.4664 98.9394 55.4147C99.0144 55.363 99.0991 55.327 99.1883 55.3088C99.2776 55.2906 99.3696 55.2906 99.4588 55.3089C99.5481 55.3271 99.6327 55.3632 99.7077 55.4149C99.7827 55.4666 99.8464 55.533 99.8951 55.61C99.9438 55.6869 99.9765 55.773 99.9911 55.8629C100.006 55.9528 100.002 56.0447 99.9804 56.1332C99.5059 58.3914 98.2704 60.4183 96.4806 61.8749C94.6908 63.3314 92.4553 64.1293 90.1477 64.1352Z" fill="#323C6B"/>
<path d="M84.7938 64.135H83.0186C82.8391 64.135 82.6671 64.0638 82.5402 63.9369C82.4133 63.81 82.342 63.6379 82.342 63.4585C82.342 63.2791 82.4133 63.107 82.5402 62.9801C82.6671 62.8533 82.8391 62.782 83.0186 62.782H84.7951C84.9746 62.782 85.1466 62.8533 85.2735 62.9801C85.4004 63.107 85.4717 63.2791 85.4717 63.4585C85.4717 63.6379 85.4004 63.81 85.2735 63.9369C85.1466 64.0638 84.9746 64.135 84.7951 64.135H84.7938Z" fill="#323C6B"/>
<path d="M0.675162 6.02137C0.556522 6.02113 0.440031 5.98969 0.337376 5.93022C0.234721 5.87074 0.149511 5.78532 0.0902955 5.68251C0.0310796 5.57971 -6.01617e-05 5.46314 8.72607e-08 5.3445C6.03362e-05 5.22586 0.0313185 5.10932 0.0906388 5.00657C0.971202 3.49008 2.23303 2.23022 3.75089 1.35202C5.26875 0.473819 6.98988 0.00781279 8.74347 0.000244141H13.1193C13.2987 0.000244141 13.4708 0.0715208 13.5977 0.198395C13.7245 0.325269 13.7958 0.497348 13.7958 0.676775C13.7958 0.856202 13.7245 1.02828 13.5977 1.15515C13.4708 1.28203 13.2987 1.35331 13.1193 1.35331H8.74212C7.22589 1.36019 5.73782 1.76338 4.42553 2.5229C3.11323 3.28241 2.02233 4.37184 1.26104 5.6831C1.20166 5.78595 1.11626 5.87135 1.01342 5.93073C0.910575 5.99011 0.793915 6.02137 0.675162 6.02137Z" fill="#323C6B"/>
<path d="M18.6439 1.35306H16.6143C16.4348 1.35306 16.2628 1.28178 16.1359 1.15491C16.009 1.02804 15.9377 0.855958 15.9377 0.676531C15.9377 0.497104 16.009 0.325025 16.1359 0.198151C16.2628 0.0712767 16.4348 0 16.6143 0H18.6439C18.8233 0 18.9954 0.0712767 19.1222 0.198151C19.2491 0.325025 19.3204 0.497104 19.3204 0.676531C19.3204 0.855958 19.2491 1.02804 19.1222 1.15491C18.9954 1.28178 18.8233 1.35306 18.6439 1.35306Z" fill="#323C6B"/>
<path d="M9.75563 35.9913C9.57621 35.9913 9.40413 35.92 9.27725 35.7932C9.15038 35.6663 9.0791 35.4942 9.0791 35.3148V28.8201C9.0791 28.6407 9.15038 28.4686 9.27725 28.3417C9.40413 28.2148 9.57621 28.1436 9.75563 28.1436C9.93506 28.1436 10.1071 28.2148 10.234 28.3417C10.3609 28.4686 10.4322 28.6407 10.4322 28.8201V35.3148C10.4322 35.4942 10.3609 35.6663 10.234 35.7932C10.1071 35.92 9.93506 35.9913 9.75563 35.9913Z" fill="#323C6B"/>
<path d="M85.6394 35.7885C87.6944 35.7885 89.3603 34.1226 89.3603 32.0676C89.3603 30.0126 87.6944 28.3467 85.6394 28.3467C83.5844 28.3467 81.9185 30.0126 81.9185 32.0676C81.9185 34.1226 83.5844 35.7885 85.6394 35.7885Z" fill="#9297AB"/>
<path d="M85.6394 36.4648C84.7699 36.4638 83.9202 36.2049 83.1977 35.7211C82.4753 35.2372 81.9125 34.5501 81.5805 33.7465C81.2485 32.9428 81.1622 32.0588 81.3325 31.2062C81.5028 30.3535 81.922 29.5704 82.5372 28.956C83.1524 28.3415 83.936 27.9233 84.7889 27.754C85.6417 27.5848 86.5256 27.6722 87.3288 28.0052C88.1321 28.3382 88.8185 28.9018 89.3015 29.6248C89.7844 30.3479 90.0422 31.1979 90.0422 32.0674C90.0408 33.2341 89.5763 34.3526 88.7507 35.1772C87.9252 36.0017 86.8061 36.4648 85.6394 36.4648ZM85.6394 29.023C85.0375 29.0241 84.4494 29.2035 83.9495 29.5387C83.4495 29.8739 83.0602 30.3497 82.8306 30.9061C82.601 31.4625 82.5415 32.0744 82.6595 32.6646C82.7776 33.2548 83.068 33.7968 83.494 34.222C83.92 34.6472 84.4624 34.9366 85.0528 35.0537C85.6432 35.1707 86.2551 35.1101 86.8111 34.8795C87.367 34.6489 87.8422 34.2587 88.1765 33.7582C88.5107 33.2576 88.6892 32.6693 88.6892 32.0674C88.6881 31.2593 88.3662 30.4848 87.7944 29.9139C87.2225 29.3431 86.4474 29.0226 85.6394 29.023Z" fill="#323C6B"/>
<path d="M38.6258 47.5601C36.6164 46.7323 34.488 46.2299 32.3206 46.0718C35.5138 40.5513 35.7709 34.8008 36.3256 27.7648C36.3256 20.3771 41.9544 15.5061 48.8685 15.5061C55.7827 15.5061 61.4114 20.3771 61.4114 27.7648H61.4385C61.9932 34.8008 62.2503 40.5513 65.4435 46.0718C63.1371 46.1655 60.8593 46.6174 58.6917 47.4113" fill="#707583"/>
<path d="M65.4435 46.0718C64.1773 46.1082 62.9177 46.2668 61.682 46.5454C59.2059 41.4579 58.9353 36.0997 58.4346 29.6727H58.4076C58.4076 22.285 52.7924 17.414 45.8647 17.414C43.9538 17.4031 42.0626 17.7998 40.3171 18.5776C42.7005 16.5501 45.7398 15.4585 48.8685 15.5061C55.7962 15.5061 61.4114 20.3772 61.4114 27.7649H61.4384C61.9932 34.8008 62.2503 40.5513 65.4435 46.0718Z" fill="#62667C"/>
<path d="M57.8217 30.1949C57.8217 30.1949 58.9042 39.4525 51.1173 41.8014C49.6612 42.2396 48.1083 42.2396 46.6522 41.8014C38.868 39.4525 39.9478 30.1949 39.9478 30.1949C39.9478 30.1949 41.2751 24.3415 46.3072 24.696C51.3392 25.0505 52.7071 22.2605 52.7071 22.2605C52.7071 22.2605 53.2781 28.2018 57.7487 30.1976L57.8217 30.1949Z" fill="#FCD462"/>
<path d="M48.8821 42.8094C48.057 42.8096 47.2364 42.6883 46.4466 42.4495C38.2159 39.9666 39.2537 30.2151 39.2632 30.1177H39.2916C39.5451 29.0543 39.9692 28.039 40.5473 27.1112C41.1192 26.0991 41.9677 25.2711 42.9933 24.724C44.019 24.1769 45.1793 23.9334 46.3384 24.0221C50.7872 24.3212 52.0375 22.0494 52.0875 21.9519C52.154 21.8217 52.2608 21.7164 52.3921 21.652C52.5234 21.5875 52.672 21.5674 52.8157 21.5945C52.9594 21.6216 53.0904 21.6946 53.1892 21.8024C53.2879 21.9103 53.3491 22.0473 53.3635 22.1928C53.3635 22.2483 53.9534 27.7173 57.9517 29.5521C58.0862 29.5851 58.2085 29.6556 58.3043 29.7556C58.4001 29.8555 58.4656 29.9806 58.4929 30.1163C58.5037 30.2151 59.5415 39.9653 51.3109 42.4495C50.5233 42.6876 49.7049 42.8089 48.8821 42.8094ZM40.6095 30.3085C40.5418 31.0202 39.9424 39.0709 46.843 41.1532C48.1727 41.555 49.5915 41.555 50.9212 41.1532C57.1831 39.259 57.2643 32.4206 57.1777 30.6778C55.9138 29.9453 54.8223 28.9493 53.9776 27.7574C53.1329 26.5655 52.5547 25.2057 52.2824 23.7705C51.4337 24.4247 50.4632 24.9032 49.4275 25.178C48.3918 25.4529 47.3118 25.5185 46.2504 25.3711C42.0478 25.068 40.7272 29.8457 40.6095 30.3085Z" fill="#323C6B"/>
<path d="M90.1477 60.0759H8.74207C7.1579 60.0726 5.63964 59.4414 4.5201 58.3206C3.40056 57.1998 2.77108 55.6808 2.76965 54.0967V10.0383C2.77108 8.4541 3.40056 6.93512 4.5201 5.81431C5.63964 4.6935 7.1579 4.0623 8.74207 4.05908H90.1477C91.7337 4.05944 93.2548 4.68937 94.3767 5.81049C95.4985 6.93161 96.1295 8.45222 96.1309 10.0383V54.0967C96.1295 55.6827 95.4985 57.2033 94.3767 58.3244C93.2548 59.4456 91.7337 60.0755 90.1477 60.0759ZM8.74207 5.41214C7.51665 5.41501 6.34234 5.90354 5.47647 6.77068C4.6106 7.63782 4.12379 8.81284 4.12272 10.0383V54.0967C4.12379 55.3221 4.6106 56.4971 5.47647 57.3643C6.34234 58.2314 7.51665 58.7199 8.74207 58.7228H90.1477C91.375 58.7228 92.5521 58.2355 93.4203 57.3681C94.2885 56.5006 94.7768 55.324 94.7779 54.0967V10.0383C94.7768 8.81097 94.2885 7.63431 93.4203 6.76686C92.5521 5.89941 91.375 5.41214 90.1477 5.41214H8.74207Z" fill="#323C6B"/>
<path d="M76.2802 60.0759H16.3003C16.1209 60.0759 15.9488 60.0046 15.8219 59.8777C15.6951 59.7508 15.6238 59.5788 15.6238 59.3993V4.73561C15.6238 4.55619 15.6951 4.38411 15.8219 4.25723C15.9488 4.13036 16.1209 4.05908 16.3003 4.05908H76.2802C76.4596 4.05908 76.6317 4.13036 76.7586 4.25723C76.8854 4.38411 76.9567 4.55619 76.9567 4.73561V59.3993C76.9567 59.5788 76.8854 59.7508 76.7586 59.8777C76.6317 60.0046 76.4596 60.0759 76.2802 60.0759ZM16.9768 58.7228H75.6037V5.41214H16.9768V58.7228Z" fill="#323C6B"/>
<path d="M38.6259 48.2367C38.5329 48.2374 38.4408 48.219 38.3553 48.1826C36.4319 47.3891 34.3952 46.9046 32.3206 46.747C32.2029 46.7402 32.0883 46.7065 31.9858 46.6483C31.8832 46.5901 31.7955 46.509 31.7293 46.4114C31.6699 46.3086 31.6387 46.1919 31.6387 46.0731C31.6387 45.9544 31.6699 45.8377 31.7293 45.7349C34.6438 40.6961 35.0403 35.5504 35.5422 29.034L35.6451 27.7121C35.6451 20.2703 41.2007 14.8296 48.8618 14.8296C56.4579 14.8296 61.9865 20.1796 62.0812 27.5768C62.0952 27.6207 62.1038 27.6661 62.1069 27.7121L62.2097 29.0259C62.7117 35.545 63.1082 40.6947 66.0227 45.7335C66.082 45.8364 66.1133 45.953 66.1133 46.0718C66.1133 46.1905 66.082 46.3072 66.0227 46.4101C65.9562 46.5074 65.8684 46.5882 65.7659 46.6464C65.6634 46.7045 65.549 46.7385 65.4314 46.7456C63.2149 46.8549 61.0265 47.2898 58.9367 48.0364C58.8541 48.0694 58.7659 48.0858 58.6771 48.0846C58.5882 48.0835 58.5004 48.0649 58.4187 48.0298C58.3371 47.9948 58.2631 47.944 58.2011 47.8803C58.139 47.8167 58.0902 47.7415 58.0572 47.6589C58.0242 47.5764 58.0078 47.4882 58.009 47.3993C58.0101 47.3104 58.0287 47.2227 58.0638 47.141C58.0988 47.0593 58.1496 46.9854 58.2133 46.9233C58.2769 46.8613 58.3522 46.8124 58.4347 46.7794C60.3332 46.0851 62.3132 45.6381 64.3259 45.4494C61.7294 40.4322 61.3235 35.1661 60.8594 29.126L60.7714 27.9881C60.7435 27.9161 60.7293 27.8394 60.7295 27.7622C60.764 26.2074 60.4784 24.6621 59.8905 23.2223C59.3026 21.7825 58.4248 20.479 57.3118 19.3928C56.1989 18.3066 54.8744 17.4609 53.4207 16.9082C51.9671 16.3555 50.4153 16.1076 48.8618 16.1799C47.3084 16.1078 45.7567 16.3558 44.3033 16.9086C42.8498 17.4614 41.5255 18.3071 40.4126 19.3933C39.2998 20.4795 38.4222 21.7829 37.8343 23.2226C37.2465 24.6623 36.9609 26.2075 36.9954 27.7622L36.8912 29.1342C36.4244 35.1796 36.0185 40.4485 33.4139 45.4697C35.2943 45.7344 37.1354 46.2274 38.8965 46.9378C39.0404 46.999 39.1586 47.1083 39.231 47.2469C39.3035 47.3856 39.3256 47.545 39.2937 47.6982C39.2618 47.8513 39.1778 47.9886 39.0561 48.0868C38.9343 48.185 38.7823 48.238 38.6259 48.2367Z" fill="#323C6B"/>
<path d="M68.4041 59.3994V53.9303C68.4205 53.0639 68.2693 52.2024 67.9589 51.3933C67.6629 50.6259 67.2174 49.9249 66.6483 49.331C66.0793 48.7371 65.398 48.2621 64.6439 47.9336L53.4392 44.2451C51.1214 46.4858 46.6861 46.1069 44.3223 44.2451L33.1189 47.9349C31.599 48.6032 30.4067 49.8476 29.8039 51.3947C29.4935 52.2038 29.3423 53.0652 29.3587 53.9317V59.3994H68.4041Z" fill="#FE7058"/>
<path d="M68.4068 53.9331V59.3995H29.3574V56.0033H64.1176V50.5369C64.1346 49.6681 63.9829 48.8042 63.6711 47.9931C63.6116 47.8407 63.5438 47.6917 63.4681 47.5466L64.6453 47.939C65.3977 48.2677 66.0778 48.7417 66.6467 49.3338C67.2155 49.9258 67.6619 50.6244 67.9603 51.3893C68.2721 52.2004 68.4238 53.0643 68.4068 53.9331Z" fill="#EA6453"/>
<path d="M61.4141 60.076H36.3487C36.1692 60.076 35.9971 60.0047 35.8703 59.8778C35.7434 59.751 35.6721 59.5789 35.6721 59.3994V52.9278C35.6721 52.7483 35.7434 52.5762 35.8703 52.4494C35.9971 52.3225 36.1692 52.2512 36.3487 52.2512C36.5281 52.2512 36.7002 52.3225 36.827 52.4494C36.9539 52.5762 37.0252 52.7483 37.0252 52.9278V58.7229H60.7376V52.9278C60.7376 52.7483 60.8089 52.5762 60.9357 52.4494C61.0626 52.3225 61.2347 52.2512 61.4141 52.2512C61.5936 52.2512 61.7656 52.3225 61.8925 52.4494C62.0194 52.5762 62.0907 52.7483 62.0907 52.9278V59.3994C62.0907 59.5789 62.0194 59.751 61.8925 59.8778C61.7656 60.0047 61.5936 60.076 61.4141 60.076Z" fill="#323C6B"/>
<path d="M68.404 60.0759H29.3587C29.1793 60.0759 29.0072 60.0046 28.8804 59.8778C28.7535 59.7509 28.6822 59.5788 28.6822 59.3994V53.9303C28.6652 52.9766 28.8334 52.0286 29.1774 51.1389C29.507 50.2899 30.0016 49.5145 30.6326 48.8577C31.2636 48.201 32.0185 47.6757 32.8537 47.3125L44.1112 43.6024C44.2173 43.568 44.3303 43.5601 44.4402 43.5794C44.5501 43.5988 44.6537 43.6447 44.7417 43.7133C46.8511 45.3749 50.9049 45.7551 52.9697 43.7593C53.0577 43.6745 53.1671 43.6151 53.2863 43.5874C53.4054 43.5598 53.5298 43.5649 53.6462 43.6024L64.8496 47.2922C65.6989 47.6513 66.4674 48.1775 67.1094 48.8395C67.7514 49.5015 68.2537 50.2857 68.5867 51.1457C68.9301 52.0346 69.0978 52.9816 69.0806 53.9344V59.3994C69.0806 59.5788 69.0093 59.7509 68.8824 59.8778C68.7556 60.0046 68.5835 60.0759 68.404 60.0759ZM30.0353 58.7228H67.7275V53.9303C67.7438 53.1515 67.6096 52.377 67.3324 51.649C67.0702 50.9635 66.674 50.3371 66.1672 49.8062C65.6603 49.2754 65.0527 48.8509 64.38 48.5573L53.5975 45.0082C51.0551 47.1095 46.7415 46.7672 44.2018 44.996L33.33 48.5749C31.996 49.1745 30.9535 50.2778 30.4304 51.6436C30.1524 52.3723 30.0178 53.1478 30.0339 53.9276L30.0353 58.7228Z" fill="#323C6B"/>
<path d="M21.9831 42.2656V43.3656C21.9831 43.5989 21.8904 43.8226 21.7255 43.9875C21.5606 44.1525 21.3369 44.2451 21.1036 44.2451C20.8704 44.2451 20.6467 44.1525 20.4817 43.9875C20.3168 43.8226 20.2241 43.5989 20.2241 43.3656V42.2669C20.2241 42.0337 20.3168 41.81 20.4817 41.645C20.6467 41.4801 20.8704 41.3875 21.1036 41.3875C21.3369 41.3875 21.5606 41.4801 21.7255 41.645C21.8904 41.81 21.9831 42.0337 21.9831 42.2669V42.2656Z" fill="white"/>
<path d="M21.9831 24.3551V38.4729C21.9831 38.7062 21.8904 38.9299 21.7255 39.0948C21.5606 39.2598 21.3369 39.3524 21.1036 39.3524C20.8704 39.3524 20.6467 39.2598 20.4817 39.0948C20.3168 38.9299 20.2241 38.7062 20.2241 38.4729V24.3551C20.2241 24.1218 20.3168 23.8981 20.4817 23.7332C20.6467 23.5682 20.8704 23.4756 21.1036 23.4756C21.3369 23.4756 21.5606 23.5682 21.7255 23.7332C21.8904 23.8981 21.9831 24.1218 21.9831 24.3551Z" fill="white"/>
</svg>
