<svg width="60" height="39" viewBox="0 0 60 39" fill="none" xmlns="http://www.w3.org/2000/svg">
<path d="M51.5725 17.2805C53.279 16.0813 54.4089 14.0866 54.4089 11.8383C54.4089 8.16017 51.4341 5.18542 47.7561 5.18542C44.078 5.18542 41.1032 8.16017 41.1032 11.8383C41.1032 14.0866 42.2216 16.0813 43.9396 17.2805C42.4753 17.7878 41.1378 18.5718 40.0078 19.5865C38.4513 18.2605 36.618 17.2459 34.6118 16.6463C37.0446 15.1705 38.6819 12.484 38.6819 9.42848C38.6819 4.77033 34.9115 1 30.2534 1C25.5953 1 21.8249 4.78186 21.8249 9.42848C21.8249 12.484 23.4507 15.1705 25.895 16.6463C23.9119 17.2459 22.1016 18.249 20.5566 19.5519C19.4267 18.5603 18.1122 17.7878 16.671 17.292C18.3774 16.0929 19.5074 14.0982 19.5074 11.8498C19.5074 8.17171 16.5326 5.19695 12.8545 5.19695C9.17643 5.19695 6.20167 8.17171 6.20167 11.8498C6.20167 14.0982 7.32009 16.0929 9.03807 17.292C4.46063 18.8716 1.17456 23.2184 1.17456 28.3263V29.0873C1.17456 29.1103 1.19762 29.1334 1.22068 29.1334H15.322C15.2412 29.7675 15.1951 30.4247 15.1951 31.082V31.866C15.1951 35.2558 17.9393 38 21.3291 38H39.2007C42.5906 38 45.3347 35.2558 45.3347 31.866V31.082C45.3347 30.4247 45.2886 29.7675 45.2079 29.1334H59.4014C59.4245 29.1334 59.4475 29.1103 59.4475 29.0873V28.3263C59.4245 23.2069 56.1499 18.8601 51.5725 17.2805ZM42.948 11.8267C42.948 9.17482 45.1041 7.0187 47.7561 7.0187C50.408 7.0187 52.5641 9.17482 52.5641 11.8267C52.5641 14.4441 50.4541 16.5771 47.8483 16.6348C47.8137 16.6348 47.7906 16.6348 47.7561 16.6348C47.7215 16.6348 47.6984 16.6348 47.6638 16.6348C45.0465 16.5887 42.948 14.4556 42.948 11.8267ZM23.6467 9.42848C23.6467 5.79651 26.5984 2.84481 30.2303 2.84481C33.8623 2.84481 36.814 5.79651 36.814 9.42848C36.814 12.9336 34.0583 15.8046 30.6108 16.0006C30.484 16.0006 30.3572 16.0006 30.2303 16.0006C30.1035 16.0006 29.9767 16.0006 29.8498 16.0006C26.4024 15.8046 23.6467 12.9336 23.6467 9.42848ZM8.01189 11.8267C8.01189 9.17482 10.168 7.0187 12.8199 7.0187C15.4718 7.0187 17.628 9.17482 17.628 11.8267C17.628 14.4441 15.518 16.5771 12.9122 16.6348C12.8776 16.6348 12.8545 16.6348 12.8199 16.6348C12.7853 16.6348 12.7623 16.6348 12.7277 16.6348C10.1219 16.5887 8.01189 14.4556 8.01189 11.8267ZM15.6448 27.277H3.04243C3.56129 22.3652 7.71211 18.5142 12.7508 18.4796C12.7738 18.4796 12.7969 18.4796 12.8199 18.4796C12.843 18.4796 12.8661 18.4796 12.8891 18.4796C15.2874 18.4911 17.4781 19.3789 19.173 20.8202C17.5127 22.6189 16.279 24.8327 15.6448 27.277ZM43.4669 31.866C43.4669 34.2297 41.5413 36.1552 39.1777 36.1552H21.3061C18.9424 36.1552 17.0169 34.2297 17.0169 31.866V31.082C17.0169 23.9218 22.7358 18.0645 29.8498 17.857C29.9767 17.8685 30.115 17.8685 30.2419 17.8685C30.3687 17.8685 30.5071 17.8685 30.6339 17.857C37.7479 18.0645 43.4669 23.9218 43.4669 31.082V31.866ZM44.8389 27.277C44.2048 24.8442 42.9941 22.665 41.3453 20.8663C43.0518 19.3905 45.2656 18.5027 47.6869 18.4796C47.7099 18.4796 47.733 18.4796 47.7561 18.4796C47.7791 18.4796 47.8022 18.4796 47.8252 18.4796C52.8639 18.5142 57.0147 22.3652 57.5336 27.277H44.8389Z" fill="#F2395B" stroke="#F2395B"/>
</svg>
