<svg width="140" height="140" viewBox="0 0 140 140" fill="none" xmlns="http://www.w3.org/2000/svg">
<g filter="url(#filter0_d)">
<path d="M78.5285 59.8811C77.9719 59.3016 77.3006 58.9917 76.5891 58.9917C75.8834 58.9917 75.2063 59.2958 74.6268 59.8753L72.8137 61.6827C72.6645 61.6024 72.5154 61.5278 72.3719 61.4532C72.1654 61.3499 71.9703 61.2524 71.8039 61.1491C70.1055 60.0704 68.5621 58.6647 67.0817 56.8458C66.3645 55.9393 65.8826 55.1762 65.5326 54.4016C66.0031 53.9712 66.4391 53.5237 66.8637 53.0934C67.0244 52.9327 67.185 52.7663 67.3457 52.6057C68.5506 51.4007 68.5506 49.8401 67.3457 48.6352L65.7793 47.0688C65.6014 46.8909 65.4178 46.7073 65.2457 46.5237C64.9014 46.168 64.5399 45.8007 64.167 45.4565C63.6104 44.9057 62.9449 44.613 62.2449 44.613C61.5449 44.613 60.8678 44.9057 60.294 45.4565C60.2883 45.4622 60.2883 45.4622 60.2826 45.468L58.3317 47.436C57.5973 48.1704 57.1785 49.0655 57.0867 50.104C56.949 51.7794 57.4424 53.3401 57.8211 54.3614C58.7506 56.8688 60.1391 59.1926 62.2104 61.6827C64.7235 64.6835 67.7473 67.0532 71.2014 68.7229C72.5211 69.3483 74.2826 70.0885 76.2506 70.2147C76.3711 70.2204 76.4973 70.2262 76.6121 70.2262C77.9375 70.2262 79.0506 69.7499 79.9227 68.8032C79.9285 68.7917 79.94 68.786 79.9457 68.7745C80.244 68.413 80.5883 68.086 80.9498 67.736C81.1965 67.5008 81.449 67.254 81.6957 66.9958C82.2637 66.4049 82.5621 65.7163 82.5621 65.0106C82.5621 64.2991 82.258 63.6163 81.6785 63.0426L78.5285 59.8811Z" fill="url(#paint0_linear)"/>
<path d="M71.7351 49.5073C73.2383 49.7598 74.6039 50.4712 75.6941 51.5614C76.7842 52.6516 77.49 54.0171 77.7482 55.5204C77.8113 55.8991 78.1383 56.163 78.5113 56.163C78.5572 56.163 78.5974 56.1573 78.6433 56.1516C79.0679 56.0827 79.349 55.6811 79.2801 55.2565C78.9703 53.4376 78.1097 51.7794 76.7957 50.4655C75.4818 49.1516 73.8236 48.2909 72.0047 47.9811C71.5801 47.9122 71.1842 48.1934 71.1097 48.6122C71.0351 49.0311 71.3105 49.4385 71.7351 49.5073Z" fill="url(#paint1_linear)"/>
<path d="M84.1972 55.0327C83.6865 52.0376 82.275 49.3122 80.1062 47.1433C77.9373 44.9745 75.2119 43.563 72.2168 43.0523C71.798 42.9777 71.4021 43.2646 71.3275 43.6835C71.2587 44.1081 71.5398 44.504 71.9644 44.5786C74.6382 45.0318 77.0767 46.2999 79.016 48.2335C80.9554 50.1728 82.2177 52.6114 82.671 55.2851C82.7341 55.6638 83.0611 55.9278 83.4341 55.9278C83.48 55.9278 83.5201 55.922 83.566 55.9163C83.9849 55.8532 84.2718 55.4515 84.1972 55.0327Z" fill="url(#paint2_linear)"/>
<circle opacity="0.5" cx="70" cy="55.9999" r="42.1437" stroke="#E0E0E0"/>
<circle opacity="0.2" cx="70" cy="56" r="52.5" stroke="#E0E0E0"/>
<circle opacity="0.8" cx="70" cy="56.0001" r="30.569" stroke="#E0E0E0"/>
</g>
<defs>
<filter id="filter0_d" x="0" y="0" width="140" height="140" filterUnits="userSpaceOnUse" color-interpolation-filters="sRGB">
<feFlood flood-opacity="0" result="BackgroundImageFix"/>
<feColorMatrix in="SourceAlpha" type="matrix" values="0 0 0 0 0 0 0 0 0 0 0 0 0 0 0 0 0 0 127 0"/>
<feOffset dy="14"/>
<feGaussianBlur stdDeviation="8.5"/>
<feColorMatrix type="matrix" values="0 0 0 0 0 0 0 0 0 0 0 0 0 0 0 0 0 0 0.14 0"/>
<feBlend mode="normal" in2="BackgroundImageFix" result="effect1_dropShadow"/>
<feBlend mode="normal" in="SourceGraphic" in2="effect1_dropShadow" result="shape"/>
</filter>
<linearGradient id="paint0_linear" x1="69.8126" y1="44.613" x2="69.8126" y2="70.2262" gradientUnits="userSpaceOnUse">
<stop stop-color="#F2395B"/>
<stop offset="1" stop-color="#F2395B" stop-opacity="0.53"/>
</linearGradient>
<linearGradient id="paint1_linear" x1="75.194" y1="47.9707" x2="75.194" y2="56.163" gradientUnits="userSpaceOnUse">
<stop stop-color="#F2395B"/>
<stop offset="1" stop-color="#F2395B" stop-opacity="0.53"/>
</linearGradient>
<linearGradient id="paint2_linear" x1="77.7631" y1="43.0405" x2="77.7631" y2="55.9278" gradientUnits="userSpaceOnUse">
<stop stop-color="#F2395B"/>
<stop offset="1" stop-color="#F2395B" stop-opacity="0.53"/>
</linearGradient>
</defs>
</svg>
