<svg width="35" height="38" viewBox="0 0 35 38" fill="none" xmlns="http://www.w3.org/2000/svg">
<path d="M3.73483 38.0002C3.13106 38.0002 2.52551 37.8534 1.97221 37.5572C1.36606 37.2328 1.13769 36.4785 1.46218 35.8723C1.78659 35.2662 2.5408 35.0378 3.14702 35.3622C3.34459 35.4679 3.86479 35.674 4.42484 35.3005C4.45171 35.2825 4.47924 35.2656 4.50752 35.2499L25.1582 23.6953C25.7581 23.3596 26.5167 23.5738 26.8523 24.1738C27.188 24.7738 26.9737 25.5322 26.3738 25.8679L5.76115 37.4013C5.14573 37.7992 4.44139 38.0002 3.73483 38.0002Z" fill="#FF4B26"/>
<path d="M25.7866 14.4758C25.5808 14.4758 25.3722 14.4246 25.1798 14.317L4.50752 2.75016C4.47932 2.7345 4.45178 2.71758 4.42484 2.69962C3.86479 2.32637 3.34474 2.5321 3.14702 2.63787C2.54087 2.96235 1.78659 2.73398 1.46218 2.12783C1.13769 1.52162 1.36606 0.767256 1.97221 0.44292C3.17292 -0.199815 4.61989 -0.138956 5.7613 0.598928L26.3954 12.1445C26.9953 12.4802 27.2096 13.2386 26.8739 13.8385C26.6459 14.2462 26.2226 14.4758 25.7866 14.4758Z" fill="#29CC5E"/>
<path d="M32.8235 15.741L26.3955 12.1444C26.1985 12.0341 25.9844 11.9843 25.7737 11.9869C25.4502 11.9831 25.1255 12.104 24.8787 12.3508L19.1098 18.1198C18.6236 18.6058 18.6236 19.394 19.1098 19.8802C19.1099 19.8803 19.11 19.8804 19.1102 19.8806L24.8198 25.5901C25.0596 25.8713 25.4089 26.0264 25.7671 26.0264C25.9729 26.0264 26.1816 25.9753 26.3739 25.8677L32.8236 22.2589C34.0201 21.5894 34.7345 20.3711 34.7345 19.0001C34.7345 17.6289 34.02 16.4105 32.8235 15.741ZM31.6078 20.0863L25.9836 23.2331L21.7503 18.9999L25.9836 14.7667L31.6078 17.9136C32.1827 18.2353 32.2448 18.7805 32.2448 18.9999C32.2448 19.2194 32.1827 19.7645 31.6078 20.0863Z" fill="#FFD500"/>
<path d="M20.8702 19.8804C21.3563 19.3944 21.3563 18.6062 20.8702 18.12L3.58284 0.8327C3.34281 0.484985 2.94908 0.291942 2.54452 0.29647C2.26004 0.293204 1.97474 0.386423 1.74229 0.577017C0.661289 1.25797 0 2.44488 0 3.73555V34.2649C0 35.5556 0.661364 36.7425 1.74236 37.4235C1.95693 37.5994 2.21662 37.6915 2.47906 37.7023C2.48484 37.7027 2.49071 37.7028 2.4965 37.7031C2.50778 37.7034 2.51906 37.7047 2.53042 37.7047C2.53301 37.7047 2.53554 37.7045 2.53813 37.7045C2.54496 37.7045 2.55172 37.705 2.55854 37.705C2.95806 37.705 3.34534 37.5118 3.58262 37.1682L20.8699 19.881C20.87 19.8807 20.87 19.8806 20.8702 19.8804ZM2.55483 34.675C2.51476 34.5557 2.48952 34.4201 2.48952 34.2649V3.73555C2.48952 3.58028 2.51476 3.44468 2.55483 3.32541L18.2297 19.0002L2.55483 34.675Z" fill="#3199FF"/>
</svg>
