<svg width="139" height="190" viewBox="0 0 139 190" fill="none" xmlns="http://www.w3.org/2000/svg">
<path d="M63.3451 135.702L61.1909 128.084C59.0527 120.522 58.0744 114.155 58.2587 108.992C58.4431 103.829 60.3054 97.0752 63.8483 88.7396C67.7473 79.6449 70.2098 72.9614 71.2323 68.7103C72.2548 64.4591 71.9749 59.5356 70.3926 53.9399C69.0188 49.0815 66.7505 45.5747 63.603 43.4055C60.4465 41.2386 56.7174 40.7064 52.4038 41.8016C46.5832 43.2795 43.2367 46.358 42.3616 51.0277C41.4865 55.6973 42.1238 62.3637 44.289 71.0128L18.4799 77.5659C13.8346 61.1379 13.9726 48.3887 18.8966 39.3275C23.8089 30.2592 33.2028 23.9737 47.0548 20.4565C57.947 17.6909 68.1489 18.7781 77.6606 23.718C87.1723 28.6579 93.7208 37.4502 97.297 50.0973C99.4512 57.7158 99.9342 64.1782 98.7431 69.4751C97.5521 74.7721 95.2396 81.0629 91.8148 88.3453C88.4732 95.5458 86.226 101.759 85.0821 106.983C83.9291 112.21 84.2868 118.127 86.1551 124.734L87.5209 129.564L63.3451 135.702ZM73.6827 179.923L64.8438 148.664L68.9219 142.563L101.504 172.859L73.6827 179.923Z" fill="#435CB5"/>
<path d="M67.6967 129.533L65.5424 121.914C63.4042 114.352 62.426 107.985 62.6103 102.822C62.7947 97.6595 64.657 90.9056 68.1999 82.5699C72.0988 73.4753 74.5614 66.7918 75.5838 62.5406C76.6063 58.2894 76.3264 53.366 74.7441 47.7703C73.3703 42.9118 71.102 39.405 67.9546 37.2358C64.7981 35.069 61.0689 34.5367 56.7554 35.632C50.9348 37.1098 47.5883 40.1883 46.7131 44.858C45.838 49.5276 46.4753 56.194 48.6405 64.8431L22.8314 71.3962C18.1862 54.9682 18.3242 42.219 23.2482 33.1578C28.1604 24.0896 37.5543 17.804 51.4064 14.2868C62.2986 11.5212 72.5005 12.6084 82.0122 17.5483C91.5239 22.4882 98.0723 31.2806 101.649 43.9276C103.803 51.5461 104.286 58.0085 103.095 63.3055C101.904 68.6024 99.5912 74.8932 96.1664 82.1756C92.8248 89.3761 90.5775 95.5896 89.4336 100.814C88.2807 106.04 88.6384 111.957 90.5066 118.564L91.8724 123.394L67.6967 129.533ZM78.0342 173.753L69.1953 142.494L97.0168 135.43L105.856 166.689L78.0342 173.753Z" fill="#577AF3"/>
<path d="M66.5874 129.277L62.3362 135.615L87.2909 129.077L91.5421 122.74L66.5874 129.277Z" fill="#435CB5"/>
<path d="M21.9729 72.5342L17.7211 78.8768L44.3462 71.8967L48.598 65.554L21.9729 72.5342Z" fill="#435CB5"/>
<path d="M76.0671 173.002L104.783 165.467L100.53 171.816L71.8146 179.351L76.0671 173.002Z" fill="#435CB5"/>
</svg>
