<svg width="50" height="50" viewBox="0 0 50 50" fill="none" xmlns="http://www.w3.org/2000/svg">
<path d="M27.4945 1.12408C26.6699 1.041 25.8416 0.999636 25.0129 1H24.988C23.6166 1.0227 22.52 2.14709 22.5317 3.51891V13.4072C22.5284 13.7402 22.5961 14.07 22.7301 14.3749C23.1594 15.3968 24.2165 16.0081 25.316 15.8708C26.5861 15.6805 27.5179 14.5784 27.4945 13.2948V6.12823C36.7605 7.3445 43.7726 15.1084 44.0413 24.4502C44.3099 33.792 37.7561 41.9464 28.5753 43.693C19.3946 45.44 10.3039 40.2624 7.12324 31.4747C3.94257 22.6871 7.61296 12.8903 15.785 8.35616C16.8713 7.74089 17.3259 6.41006 16.8427 5.25895L16.8398 5.25199C16.569 4.59719 16.0317 4.08953 15.3626 3.85565C14.6939 3.62213 13.9571 3.68508 13.3374 4.02841C2.99789 9.78947 -1.59377 22.2314 2.52426 33.3279C6.64193 44.4247 18.2387 50.8589 29.8333 48.4801C41.4279 46.1014 49.5546 35.6209 48.9704 23.799C48.3866 11.9775 39.267 2.34877 27.4945 1.12408Z" fill="#F2395B" stroke="white"/>
<path d="M15.9486 17.0161C16.9467 19.6444 20.2123 25.8502 22.6551 28.4925C24.1568 30.1878 26.7211 30.4148 28.4974 29.01C29.3861 28.2644 29.9208 27.1803 29.9721 26.0215C30.0229 24.8631 29.5848 23.7361 28.7653 22.9155C26.2105 20.3611 19.7266 16.9766 17.0078 15.9444C16.7033 15.8298 16.3596 15.9052 16.1305 16.1366C15.9017 16.3682 15.8304 16.7127 15.9486 17.0161Z" fill="#F2395B" stroke="white"/>
</svg>
