<svg width="81" height="81" viewBox="0 0 81 81" fill="none" xmlns="http://www.w3.org/2000/svg">
<rect width="81" height="81" rx="20" fill="#F2395B"/>
<path d="M38.2555 33.8348C38.4576 33.382 38.7352 32.8404 39.0882 32.2071C39.4412 31.5765 39.77 30.9216 40.0718 30.2398C40.3736 29.558 40.6135 28.852 40.7913 28.1217C40.9665 27.3914 41.0312 26.6961 40.98 26.0413C43.6021 25.5373 46.278 25.0576 49.0025 24.6022C51.727 24.1495 54.3114 23.783 56.761 23.5054C59.2079 23.2278 61.4393 23.0769 63.4577 23.05C65.4761 23.0257 67.0903 23.1632 68.3003 23.4677C68.4512 23.5189 68.6264 23.5701 68.8285 23.6186C69.2328 23.721 69.5588 23.7695 69.8121 23.7695C70.2164 23.8719 70.6071 23.8342 70.9844 23.6563C71.3644 23.4811 71.6015 23.1901 71.7039 22.7859C71.8036 22.4841 71.8414 22.131 71.8171 21.7268C71.7902 21.3226 71.5773 20.921 71.173 20.5168C70.7688 20.1126 70.114 19.7488 69.2058 19.42C68.2976 19.0939 67.0122 18.8271 65.3468 18.625C61.7141 18.1723 57.8794 18.0834 53.8425 18.3609C49.8056 18.6385 45.9331 19.0562 42.225 19.6086C38.5169 20.1638 35.1483 20.7567 32.122 21.3872C29.0957 22.0151 26.7242 22.4571 25.0103 22.7077C23.2425 22.961 21.6552 23.112 20.2431 23.1605C18.831 23.2117 17.6183 23.112 16.6105 22.8586C16.0041 22.7077 15.4759 22.6457 15.0205 22.67C14.5678 22.6969 14.212 22.7589 13.9614 22.8586C13.6596 23.0095 13.4063 23.1605 13.2042 23.3114C12.649 23.8153 12.3203 24.3327 12.2206 24.8636C12.1181 25.3945 12.0939 25.8634 12.1451 26.2649C12.1936 26.8201 12.3472 27.324 12.5978 27.7794C13.3039 29.0918 14.7429 29.9245 16.9123 30.2776C19.0816 30.6306 22.3343 30.2776 26.6757 29.2185C28.643 28.7657 30.9902 28.2349 33.7147 27.6285C33.4128 28.0327 33.1595 28.3992 32.9574 28.7253C32.7553 29.0541 32.6044 29.3182 32.5047 29.5203C31.2435 31.7409 30.0443 34.0234 28.9097 36.3706C27.7752 38.7178 26.7781 41.1378 25.9212 43.6359C25.0615 46.134 24.3824 48.6672 23.8785 51.2408C23.3745 53.8144 23.1212 56.3879 23.1212 58.9615C23.1212 59.5679 23.132 60.3359 23.1589 61.271C23.1832 62.2061 23.2829 63.152 23.4608 64.1087C23.6359 65.068 23.9027 65.9385 24.2557 66.72C24.6088 67.5015 25.137 68.0458 25.8457 68.3477C26.3496 68.5983 26.7539 68.6252 27.0557 68.4231C27.3575 68.221 27.5974 67.9327 27.7752 67.5527C27.9504 67.1754 28.077 66.7469 28.1525 66.2673C28.2279 65.7876 28.2657 65.3968 28.2657 65.095C28.3654 61.8666 28.7966 58.6489 29.5511 55.4447C30.3084 52.2406 31.292 49.1011 32.502 46.0236C33.3077 43.9054 34.2159 41.8492 35.2265 39.855C36.237 37.8582 37.2449 35.8532 38.2555 33.8348Z" fill="white"/>
</svg>
